<?xml version="1.0" encoding="UTF-8" standalone="no"?>
<!-- Created with Inkscape (http://www.inkscape.org/) -->

<svg
   width="191.04674mm"
   height="13.01884mm"
   viewBox="0 0 191.04674 13.01884"
   version="1.1"
   id="svg1"
   sodipodi:docname="taskgo.svg"
   xmlns:inkscape="http://www.inkscape.org/namespaces/inkscape"
   xmlns:sodipodi="http://sodipodi.sourceforge.net/DTD/sodipodi-0.dtd"
   xmlns="http://www.w3.org/2000/svg"
   xmlns:svg="http://www.w3.org/2000/svg">
  <sodipodi:namedview
     id="namedview1"
     pagecolor="#ffffff"
     bordercolor="#000000"
     borderopacity="0.25"
     inkscape:showpageshadow="2"
     inkscape:pageopacity="0.0"
     inkscape:pagecheckerboard="0"
     inkscape:deskcolor="#d1d1d1"
     inkscape:document-units="mm"
     inkscape:zoom="0.86349673"
     inkscape:cx="361.32158"
     inkscape:cy="535.03387"
     inkscape:window-width="1906"
     inkscape:window-height="1026"
     inkscape:window-x="0"
     inkscape:window-y="0"
     inkscape:window-maximized="1"
     inkscape:current-layer="layer1"
     inkscape:export-bgcolor="#ffffff00" />
  <defs
     id="defs1" />
  <g
     inkscape:label="Layer 1"
     inkscape:groupmode="layer"
     id="layer1"
     transform="translate(-14.762923,-113.85042)">
    <g
       id="g42">
      <path
         id="text1"
         style="font-size:50.8px;font-family:Caladea;-inkscape-font-specification:Caladea;fill:#000000;stroke-width:0.264583"
         d="m 173.91083,113.85042 c 0.68234,3.13934 2.07555,5.84111 4.21577,8.08271 3.15846,3.29075 7.0528,4.93613 11.683,4.93613 4.5806,0 8.48321,-1.68672 11.70782,-5.06016 2.16035,-2.26006 3.57923,-4.91928 4.29224,-7.95868 h -5.3852 c -0.41563,3.25634 -1.36024,5.78483 -2.85099,7.56181 -2.05052,2.46393 -4.65502,3.6959 -7.81348,3.6959 -2.96002,0 -5.34127,-1.12449 -7.14375,-3.37344 -1.60946,-2.02883 -2.65369,-4.66685 -3.16001,-7.88427 z" />
      <path
         id="path39"
         style="font-size:50.8px;font-family:Caladea;-inkscape-font-specification:Caladea;fill:#000000;stroke-width:0.264583"
         d="m 137.18853,113.85042 c 0.57137,2.46061 1.6758,4.7195 3.33416,6.76806 3.37343,4.16718 8.30958,6.25078 14.8084,6.25078 2.26549,0 4.32428,-0.23978 6.17636,-0.71934 1.85209,-0.47955 3.72898,-1.23196 5.63067,-2.25722 v -10.04228 h -4.83692 v 9.47177 c -1.07486,0.61185 -2.19108,1.07487 -3.34863,1.38906 -1.15755,0.31419 -2.35644,0.47129 -3.59668,0.47129 -2.11666,0 -4.18372,-0.61185 -6.20117,-1.83555 -2.00091,-1.24023 -3.62149,-3.18327 -4.86172,-5.8291 -0.546,-1.1648 -0.95062,-2.3937 -1.25625,-3.66747 z" />
      <path
         id="path37"
         style="font-size:50.8px;font-family:Caladea;-inkscape-font-specification:Caladea;fill:#000000;stroke-width:0.264583"
         d="m 113.26544,113.85042 7.01662,6.94169 c 0.87644,0.8599 1.38907,1.44694 1.53789,1.76113 0.16537,0.3142 0.24805,0.66973 0.24805,1.0666 0,0.39688 -0.21497,0.76068 -0.64492,1.09141 -0.41341,0.31419 -1.09968,0.47129 -2.05879,0.47129 v 0.91777 h 15.99902 v -0.91777 c -1.43867,-0.0992 -2.87734,-0.51263 -4.31601,-1.24023 -1.43867,-0.74414 -3.175,-2.13321 -5.20899,-4.16719 l -5.96036,-5.9247 z" />
      <path
         id="path36"
         style="font-size:50.8px;font-family:Caladea;-inkscape-font-specification:Caladea;fill:#000000;stroke-width:0.264583"
         d="m 103.91097,113.85042 v 6.29677 c 0,2.01744 -0.19844,3.29075 -0.59531,3.81992 -0.62839,0.81029 -1.63711,1.21543 -3.02617,1.21543 h -1.190629 v 0.91777 h 14.337109 v -0.91777 h -1.14102 c -0.79374,0 -1.54616,-0.19844 -2.25722,-0.59531 -0.52917,-0.29766 -0.87643,-0.65319 -1.0418,-1.0666 -0.21497,-0.54571 -0.32246,-1.67019 -0.32246,-3.37344 v -6.29677 z" />
      <path
         id="path34"
         style="font-size:50.8px;font-family:Caladea;-inkscape-font-specification:Caladea;fill:#000000;stroke-width:0.264583"
         d="m 87.195194,113.85042 c 0.411572,0.25857 0.914622,0.56263 1.113628,0.71571 0.959113,0.72761 1.661914,1.51309 2.108398,2.35645 0.46302,0.84336 0.694531,1.67845 0.694531,2.50527 0,1.48828 -0.603582,2.77813 -1.810742,3.86953 -1.190624,1.09141 -2.819468,1.63711 -4.886523,1.63711 -1.785936,0 -3.431317,-0.39687 -4.936133,-1.19062 -1.48828,-0.79375 -2.596225,-1.78594 -3.323828,-2.97656 -0.727604,-1.20716 -1.306381,-3.01791 -1.736328,-5.43223 h -0.917774 v 11.53418 h 0.917774 c 0.115755,-0.77721 0.289388,-1.28985 0.520898,-1.53789 0.248047,-0.24805 0.578777,-0.37207 0.992188,-0.37207 0.429947,0 1.446941,0.26458 3.050976,0.79375 1.620571,0.51263 2.687175,0.81028 3.199805,0.89297 0.859895,0.14882 1.77767,0.22324 2.75332,0.22324 3.108851,0 5.647203,-0.91778 7.615039,-2.75332 1.984373,-1.85208 2.976563,-4.05144 2.976563,-6.59805 0,-1.27556 -0.294166,-2.49689 -0.86403,-3.66747 z" />
      <path
         id="path32"
         style="font-size:50.8px;font-family:Caladea;-inkscape-font-specification:Caladea;fill:#000000;stroke-width:0.264583"
         d="m 41.607796,113.85042 -2.362646,5.52782 c -1.02526,2.43086 -1.959571,4.04317 -2.80293,4.83692 -0.413411,0.39687 -1.322918,0.71933 -2.728516,0.96738 v 0.91777 h 10.591602 v -0.91777 c -1.620571,-0.11576 -2.678907,-0.3638 -3.175,-0.74414 -0.479557,-0.39688 -0.719336,-0.85163 -0.719336,-1.36426 0,-0.64492 0.28112,-1.62057 0.843359,-2.92695 l 2.282032,-5.3082 h 13.022461 l 2.033984,4.83691 c 0.661458,1.57096 0.992187,2.72025 0.992187,3.44785 0,0.5457 -0.239779,1.00873 -0.719335,1.38906 -0.463021,0.38034 -1.36426,0.60358 -2.703711,0.66973 v 0.91777 h 13.270507 v -0.91777 c -1.372524,-0.0827 -2.447396,-0.45475 -3.224609,-1.11621 -0.760676,-0.678 -1.612306,-2.14147 -2.554883,-4.39043 l -2.437577,-5.82548 z" />
      <path
         id="path30"
         style="font-size:50.8px;font-family:Caladea;-inkscape-font-specification:Caladea;fill:#000000;stroke-width:0.264583"
         d="m 19.525423,113.85042 v 6.42079 c 0,1.88516 -0.181901,3.09232 -0.545703,3.62149 -0.595312,0.85989 -1.604038,1.28984 -3.026172,1.28984 h -1.190625 v 0.91777 h 14.262695 v -0.91777 h -1.16582 c -1.306379,0 -2.273763,-0.34727 -2.902148,-1.0418 -0.446484,-0.51263 -0.669727,-1.80247 -0.669727,-3.86953 v -6.42079 z" />
    </g>
  </g>
</svg>
