<?xml version="1.0" encoding="UTF-8" standalone="no"?>
<!-- Created with Inkscape (http://www.inkscape.org/) -->

<svg
   width="198.46231mm"
   height="22.154207mm"
   viewBox="0 0 198.46231 22.154207"
   version="1.1"
   id="svg1"
   sodipodi:docname="taskgo.svg"
   xmlns:inkscape="http://www.inkscape.org/namespaces/inkscape"
   xmlns:sodipodi="http://sodipodi.sourceforge.net/DTD/sodipodi-0.dtd"
   xmlns="http://www.w3.org/2000/svg"
   xmlns:svg="http://www.w3.org/2000/svg">
  <sodipodi:namedview
     id="namedview1"
     pagecolor="#ffffff"
     bordercolor="#000000"
     borderopacity="0.25"
     inkscape:showpageshadow="2"
     inkscape:pageopacity="0.0"
     inkscape:pagecheckerboard="0"
     inkscape:deskcolor="#d1d1d1"
     inkscape:document-units="mm"
     inkscape:zoom="0.86349673"
     inkscape:cx="361.32158"
     inkscape:cy="535.03387"
     inkscape:window-width="1906"
     inkscape:window-height="1026"
     inkscape:window-x="0"
     inkscape:window-y="0"
     inkscape:window-maximized="1"
     inkscape:current-layer="layer1"
     inkscape:export-bgcolor="#ffffff00" />
  <defs
     id="defs1" />
  <g
     inkscape:label="Layer 1"
     inkscape:groupmode="layer"
     id="layer1"
     transform="translate(-6.3899015,-72.698842)">
    <g
       id="g41">
      <path
         id="path41"
         style="font-size:50.8px;font-family:Caladea;-inkscape-font-specification:Caladea;fill:#000000;stroke-width:0.264583"
         d="m 172.40871,94.85305 h 5.5454 c -0.23239,-1.47674 -0.36225,-3.0638 -0.36225,-4.79093 0,-5.3578 1.13275,-9.425781 3.39824,-12.203903 1.81901,-2.23242 4.23334,-3.348633 7.24297,-3.348633 3.20807,0 5.72162,1.124481 7.54062,3.373437 2.2655,2.827732 3.39825,7.118949 3.39825,12.873629 0,1.47995 -0.0889,2.83754 -0.2496,4.0964 h 5.3852 c 0.35125,-1.4973 0.54467,-3.07969 0.54467,-4.76612 0,-4.96093 -1.60404,-9.095058 -4.81211,-12.402346 -3.19153,-3.323825 -6.97012,-4.985742 -11.33574,-4.985742 -4.3987,0 -8.17728,1.463479 -11.33574,4.390429 -3.63802,3.373435 -5.45704,7.730799 -5.45704,13.072069 0,1.666 0.17777,3.22237 0.49713,4.69171 z" />
      <path
         id="path40"
         style="font-size:50.8px;font-family:Caladea;-inkscape-font-specification:Caladea;fill:#000000;stroke-width:0.264583"
         d="m 160.79908,94.85305 h 4.83692 v -0.25167 c 0,-1.80247 0.16536,-3.00964 0.49609,-3.62148 0.47956,-0.8599 1.36426,-1.28985 2.6541,-1.28985 h 0.62012 v -0.94258 h -13.02246 v 0.94258 c 1.35599,0 2.29857,0.14056 2.82773,0.42168 0.54571,0.26459 0.94258,0.66146 1.19063,1.19063 0.26458,0.51263 0.39687,1.6123 0.39687,3.29902 z" />
      <path
         id="path38"
         style="font-size:50.8px;font-family:Caladea;-inkscape-font-specification:Caladea;fill:#000000;stroke-width:0.264583"
         d="m 135.68641,94.85305 h 5.84822 c -0.3886,-1.61958 -0.6041,-3.31765 -0.6041,-5.11339 0,-3.95221 0.93431,-7.35872 2.80293,-10.219529 2.23242,-3.389971 5.49011,-5.084961 9.77305,-5.084961 3.14192,0 5.71334,0.967385 7.71425,2.902148 1.38907,1.339452 2.52181,3.332099 3.39825,5.977932 h 0.86816 l -0.86816,-10.616408 h -0.91778 c -0.0496,0.843358 -0.19017,1.413867 -0.42168,1.711523 -0.21497,0.28112 -0.47955,0.42168 -0.79375,0.42168 -0.31419,0 -0.93431,-0.173633 -1.86035,-0.520899 -1.83554,-0.677994 -3.25768,-1.116211 -4.2664,-1.314648 -0.99219,-0.198437 -2.10014,-0.297656 -3.32383,-0.297656 -3.3569,0 -6.26732,0.719337 -8.73125,2.158008 -2.94349,1.736326 -5.2586,4.2168 -6.94532,7.44141 -1.42213,2.71197 -2.1332,5.54798 -2.1332,8.508 0,1.40729 0.16061,2.75336 0.46096,4.04679 z" />
      <path
         id="path35"
         style="font-size:50.8px;font-family:Caladea;-inkscape-font-specification:Caladea;fill:#000000;stroke-width:0.264583"
         d="m 102.40885,94.85305 h 4.7625 v -4.54288 l 4.59197,4.54288 h 6.61251 l -6.44198,-6.40323 5.13457,-5.10977 c 2.9931,-3.059239 4.67155,-4.754229 5.03535,-5.084958 1.25677,-1.157551 2.31511,-1.992644 3.175,-2.505274 0.8599,-0.529166 1.5875,-0.8847 2.18281,-1.066601 0.59532,-0.181901 1.25678,-0.28112 1.98438,-0.297656 v -0.917774 h -12.35273 v 0.917774 h 0.76894 c 0.82682,0 1.41387,0.148828 1.76113,0.446484 0.34727,0.281119 0.5209,0.611849 0.5209,0.992187 0,0.496094 -0.22324,1.074871 -0.66972,1.736329 -1.02526,1.504816 -3.99356,4.506189 -8.90489,9.004099 -1.93476,1.78594 -3.06751,2.836 -3.39824,3.1502 V 79.420912 c 0,-1.653644 0.0992,-2.745053 0.29766,-3.274219 0.19843,-0.529166 0.55397,-0.926042 1.0666,-1.190625 0.7276,-0.380338 1.48001,-0.570507 2.25722,-0.570507 h 1.14102 V 73.467787 H 97.596738 v 0.917774 h 1.190629 c 0.79374,0 1.554423,0.198437 2.282033,0.595312 0.51263,0.297656 0.85162,0.644922 1.01699,1.041797 0.21497,0.562239 0.32246,1.694989 0.32246,3.398242 z" />
      <path
         id="path33"
         style="font-size:50.8px;font-family:Caladea;-inkscape-font-specification:Caladea;fill:#000000;stroke-width:0.264583"
         d="m 85.693071,94.85305 h 7.467762 c -0.02855,-0.05864 -0.04857,-0.11888 -0.07855,-0.17726 -0.611849,-1.22369 -1.496551,-2.28203 -2.654102,-3.175 -1.141014,-0.9095 -3.28249,-2.20761 -6.424414,-3.89433 -3.852991,-2.06706 -6.292124,-3.72071 -7.317383,-4.96094 -0.711067,-0.84336 -1.066601,-1.777669 -1.066601,-2.802928 0,-1.339452 0.56224,-2.530079 1.686718,-3.571875 1.124478,-1.058333 2.546617,-1.5875 4.266407,-1.5875 1.521352,0 2.9931,0.388607 4.415234,1.16582 1.422134,0.777213 2.513542,1.82728 3.274219,3.150195 0.777212,1.322916 1.314648,3.100588 1.612304,5.333008 h 0.917774 V 72.698842 h -0.917774 c -0.165364,0.777213 -0.388607,1.298112 -0.669726,1.562695 -0.264583,0.248047 -0.61185,0.37207 -1.041797,0.37207 -0.380338,0 -1.03353,-0.206706 -1.95957,-0.620117 -2.00091,-0.876431 -3.894338,-1.314648 -5.680274,-1.314648 -2.860804,0 -5.217254,0.876434 -7.069336,2.629297 -1.852081,1.736326 -2.778125,3.811656 -2.778125,6.225981 0,1.38906 0.314194,2.66237 0.942578,3.81992 0.628385,1.15755 1.54616,2.21588 2.753321,3.175 1.223696,0.95911 3.274221,2.24896 6.151562,3.86953 1.98947,1.10907 3.247556,1.85508 4.169771,2.43448 z" />
      <path
         id="path31"
         style="font-size:50.8px;font-family:Caladea;-inkscape-font-specification:Caladea;fill:#000000;stroke-width:0.264583"
         d="M 40.105673,94.85305 H 59.713262 L 50.443027,72.698842 H 49.574863 Z M 48.657089,80.4131 54.362167,94.00607 H 42.803183 Z" />
      <path
         id="path29"
         style="font-size:50.8px;font-family:Caladea;-inkscape-font-specification:Caladea;fill:#000000;stroke-width:0.264583"
         d="m 18.0233,94.85305 h 4.7625 V 75.576186 h 4.737695 c 1.389062,0 2.505275,0.23151 3.348633,0.694531 0.859895,0.446484 1.54616,1.149285 2.058789,2.108398 0.314193,0.595312 0.56224,1.587502 0.744141,2.976565 h 0.942578 l -0.37207,-7.887893 H 6.7867765 l -0.396875,7.887893 h 0.9425782 c 0.1157551,-1.521355 0.4795579,-2.728519 1.0914062,-3.621487 0.6118479,-0.892968 1.3477219,-1.496549 2.2076171,-1.810742 0.661458,-0.23151 1.777671,-0.347265 3.348633,-0.347265 H 18.0233 Z" />
    </g>
  </g>
</svg>
